#!OML:ASF H:\GeneralSubjects\Female5\Project 1\Capture day 1\Session 1\Female5.ASF
:FULLY-SPECIFIED
:DEGREES
382
root -25.786 15.8192 4.91632 -172.043 23.6892 -188.042
lowerback 8.10815 4.76954 1.3631
upperback -10.1936 6.85225 -7.14449
thorax -14.872 2.92494 -10.3789
lowerneck -3.88504 10.0025 19.0195
upperneck 27.0743 16.6398 -5.91471
head 11.565 9.87545 -3.01438
rclavicle -4.24405e-014 -1.19271e-014
rhumerus -31.7976 8.08735 -77.0009
rradius 29.9497
rwrist -12.0135
rhand -30.7465 -21.4337
rfingers 7.12502
rthumb -4.03839 -51.3751
lclavicle -4.24405e-014 -1.19271e-014
lhumerus -43.971 -4.14057 63.9618
lradius 23.4685
lwrist -8.58386
lhand -20.6542 34.9291
lfingers 7.12502
lthumb 5.70825 64.8322
rfemur -18.5175 -5.3483 6.12845
rtibia 25.3486
rfoot -31.962 -10.9327
rtoes -16.0626
lfemur -0.358563 -19.9976 -33.2369
ltibia -4.20676
lfoot -4.80968 3.2181
ltoes -70.7587
383
root -25.7093 15.8119 4.95964 -171.961 22.1662 -187.946
lowerback 8.35088 4.74752 1.18432
upperback -10.0678 6.78595 -7.32129
thorax -14.8859 2.90467 -10.4953
lowerneck -4.23591 9.85529 18.9436
upperneck 27.165 16.2867 -5.53078
head 11.5739 9.74627 -2.8976
rclavicle 6.40087e-014 -1.07344e-013
rhumerus -32.0766 6.48845 -76.3863
rradius 31.9802
rwrist -14.6238
rhand -31.2954 -21.4989
rfingers 7.12502
rthumb -4.5684 -51.4297
lclavicle 6.40087e-014 -1.07344e-013
lhumerus -44.1756 -6.80682 65.7405
lradius 23.9653
lwrist -9.82733
lhand -21.9703 34.9435
lfingers 7.12502
lthumb 4.43741 64.877
rfemur -18.2602 -4.35103 6.38038
rtibia 26.1022
rfoot -32.3453 -11.2235
rtoes -16.4984
lfemur -0.79209 -20.116 -32.7167
ltibia -3.73002
lfoot -4.66353 1.96643
ltoes -70.7804
384
root -25.6248 15.8014 5.00394 -171.929 20.4797 -187.889
lowerback 8.62885 4.68029 0.961369
upperback -9.9252 6.65045 -7.45327
thorax -14.9239 2.85674 -10.5254
lowerneck -4.60466 9.6853 18.7272
upperneck 27.1885 15.9162 -5.23442
head 11.5528 9.58348 -2.79701
rclavicle 3.61788e-014 4.77083e-015
rhumerus -32.5693 5.24409 -75.9533
rradius 34.0787
rwrist -17.4491
rhand -31.7967 -21.4052
rfingers 7.12502
rthumb -5.05247 -51.3249
lclavicle 3.61788e-014 4.77083e-015
lhumerus -44.3054 -9.0652 67.4622
lradius 24.4303
lwrist -11.0823
lhand -22.5356 34.0126
lfingers 7.12502
lthumb 3.8916 63.9568
rfemur -17.8718 -3.43703 6.55388
rtibia 26.8151
rfoot -32.617 -11.3588
rtoes -16.9285
lfemur -1.21879 -20.3125 -32.2357
ltibia -3.23409
lfoot -4.4648 0.587869
ltoes -70.8014
385
root -25.5332 15.7897 5.0494 -171.926 18.6491 -187.84
lowerback 8.94252 4.59446 0.731518
upperback -9.78512 6.48912 -7.55535
thorax -14.9963 2.79661 -10.5177
lowerneck -4.98909 9.43586 18.5682
upperneck 27.1948 15.4708 -5.14799
head 11.5428 9.37279 -2.7928
rclavicle 4.16454e-014 6.20208e-014
rhumerus -33.2596 4.28239 -75.6904
rradius 36.0768
rwrist -20.2137
rhand -32.2689 -21.1468
rfingers 7.12502
rthumb -5.50836 -51.0552
lclavicle 4.16454e-014 6.20208e-014
lhumerus -44.3214 -10.9587 69.0841
lradius 24.8408
lwrist -12.1409
lhand -23.2148 33.5879
lfingers 7.12502
lthumb 3.23562 63.5431
rfemur -17.4024 -2.62435 6.68998
rtibia 27.5281
rfoot -32.7755 -11.3084
rtoes -17.2032
lfemur -1.6566 -20.6054 -31.7482
ltibia -2.72055
lfoot -4.22446 -0.787583
ltoes -70.8288
386
root -25.4343 15.7787 5.09541 -171.913 16.688 -187.732
lowerback 9.25061 4.49134 0.543662
upperback -9.65045 6.31167 -7.60687
thorax -15.0748 2.72623 -10.4697
lowerneck -5.4199 12.3193 18.0707
upperneck 27.7306 13.7403 -4.06494
head 11.644 6.98464 -2.80887
rclavicle -5.54609e-014 -3.49861e-014
rhumerus -34.0719 3.63973 -75.6075
rradius 37.8161
rwrist -22.6717
rhand -32.7374 -20.7067
rfingers 7.12502
rthumb -5.9607 -50.6029
lclavicle -5.54609e-014 -3.49861e-014
lhumerus -44.1737 -12.3766 70.5329
lradius 25.1514
lwrist -12.9136
lhand -23.8216 33.4474
lfingers 7.12502
lthumb 2.64969 63.4107
rfemur -16.9012 -1.89901 6.88443
rtibia 28.2665
rfoot -32.7972 -11.0838
rtoes -17.3019
lfemur -2.13309 -21.0194 -31.1641
ltibia -2.19328
lfoot -3.9904 -2.12752
ltoes -70.8765
387
root -25.3274 15.7701 5.1409 -171.861 14.6096 -187.506
lowerback 9.51783 4.37829 0.445792
upperback -9.52644 6.13685 -7.59945
thorax -15.1356 2.65092 -10.3966
lowerneck -5.77129 11.9721 17.8509
upperneck 27.7693 13.2767 -4.15342
head 11.6504 6.75072 -2.86777
rclavicle -8.00108e-014 2.8625e-014
rhumerus -34.9508 3.29327 -75.7197
rradius 39.1587
rwrist -24.6148
rhand -33.2038 -20.1087
rfingers 7.12502
rthumb -6.41092 -49.9917
lclavicle -8.00108e-014 2.8625e-014
lhumerus -43.8146 -13.2524 71.7588
lradius 25.3166
lwrist -13.4089
lhand -24.2603 33.4964
lfingers 7.12502
lthumb 2.22598 63.4645
rfemur -16.3893 -1.27175 7.227
rtibia 29.0303
rfoot -32.6115 -10.6978
rtoes -17.3711
lfemur -2.66412 -21.5686 -30.4051
ltibia -1.65316
lfoot -3.76949 -3.46348
ltoes -70.9086
388
root -25.2119 15.7659 5.18521 -171.758 12.4254 -187.136
lowerback 9.72762 4.26854 0.477371
upperback -9.42891 5.99174 -7.5492
thorax -15.1775 2.57883 -10.3453
lowerneck -6.12686 11.6469 17.4043
upperneck 27.9454 12.7892 -3.96632
head 11.6702 6.50677 -2.79589
rclavicle 4.72114e-014 -2.70347e-014
rhumerus -35.8697 3.1551 -76.0304
rradius 39.9868
rwrist -25.8269
rhand -33.5472 -19.4756
rfingers 7.12502
rthumb -6.74246 -49.3482
lclavicle 4.72114e-014 -2.70347e-014
lhumerus -43.2656 -13.695 72.8023
lradius 25.3541
lwrist -13.61
lhand -24.4654 33.7163
lfingers 7.12502
lthumb 2.02786 63.6864
rfemur -15.8678 -0.762726 7.76806
rtibia 29.7719
rfoot -32.1237 -10.2234
rtoes -17.8163
lfemur -3.27362 -22.2777 -29.4283
ltibia -1.08848
lfoot -3.56847 -4.60666
ltoes -70.8512
389
root -25.0874 15.7666 5.22813 -171.604 10.1549 -186.613
lowerback 9.85137 4.17985 0.555289
upperback -9.34573 5.88738 -7.43624
thorax -15.1759 2.5268 -10.2413
lowerneck -6.51204 11.3542 16.7811
upperneck 28.2502 12.2937 -3.53027
head 11.7178 6.26421 -2.60466
rclavicle -1.03368e-014 -8.26944e-014
rhumerus -36.7559 3.19364 -76.5211
rradius 40.2398
rwrist -26.2104
rhand -33.6257 -18.9167
rfingers 7.12502
rthumb -6.81825 -48.7869
lclavicle -1.03368e-014 -8.26944e-014
lhumerus -42.5531 -13.8483 73.7847
lradius 25.3178
lwrist -13.4803
lhand -24.5563 34.1309
lfingers 7.12502
lthumb 1.94006 64.1019
rfemur -15.3222 -0.340092 8.53802
rtibia 30.4095
rfoot -31.331 -9.68318
rtoes -18.7378
lfemur -3.97401 -23.1994 -28.2105
ltibia -0.505259
lfoot -3.37179 -5.55892
ltoes -70.6959
390
root -24.9538 15.7725 5.26963 -171.414 7.8255 -185.944
lowerback 9.89722 4.10117 0.691304
upperback -9.2842 5.81028 -7.25478
thorax -15.1466 2.48605 -10.0853
lowerneck -6.89495 11.0807 16.0549
upperneck 28.6496 11.7806 -2.90387
head 11.7868 6.02121 -2.32882
rclavicle -1.38155e-014 -2.70347e-014
rhumerus -37.6001 3.51965 -77.2496
rradius 39.9666
rwrist -25.9074
rhand -33.4468 -18.5021
rfingers 7.12502
rthumb -6.64552 -48.3778
lclavicle -1.38155e-014 -2.70347e-014
lhumerus -41.8007 -13.8591 74.8277
lradius 25.2943
lwrist -12.9786
lhand -24.734 34.7382
lfingers 7.12502
lthumb 1.76845 64.7106
rfemur -14.7276 0.0883801 9.54609
rtibia 30.8574
rfoot -30.321 -9.04267
rtoes -19.8628
lfemur -4.76953 -24.3612 -26.7492
ltibia 0.0844941
lfoot -3.19034 -6.15472
ltoes -70.4441
391
root -24.8115 15.7834 5.30977 -171.209 5.46541 -185.162
lowerback 9.87529 4.03874 0.835887
upperback -9.24343 5.76084 -7.00908
thorax -15.0994 2.46164 -9.85689
lowerneck -7.20616 10.7836 15.398
upperneck 29.012 11.2482 -2.32519
head 11.8423 5.77321 -2.08541
rclavicle -7.17613e-014 1.01778e-013
rhumerus -38.4018 4.1767 -78.2474
rradius 39.2575
rwrist -25.1091
rhand -33.0388 -18.274
rfingers 7.12502
rthumb -6.25167 -48.1618
lclavicle -7.17613e-014 1.01778e-013
lhumerus -41.1105 -13.9646 76.0665
lradius 25.3828
lwrist -12.0711
lhand -24.9458 35.402
lfingers 7.12502
lthumb 1.56392 65.376
rfemur -14.0724 0.56677 10.7726
rtibia 31.0664
rfoot -29.1711 -8.34412
rtoes -21.2059
lfemur -5.66344 -25.722 -25.0685
ltibia 0.668019
lfoot -3.02925 -6.41207
ltoes -70.1539
392
root -24.661 15.7989 5.34828 -171.013 3.09246 -184.299
lowerback 9.79988 3.96398 0.960125
upperback -9.2126 5.69343 -6.6703
thorax -15.0431 2.43525 -9.49845
lowerneck -7.47866 10.4681 14.8623
upperneck 29.3323 10.7309 -1.9255
head 11.9027 5.5272 -1.92418
rclavicle -8.44835e-015 -6.36111e-014
rhumerus -39.1254 5.30007 -79.5331
rradius 38.2265
rwrist -23.9885
rhand -32.4225 -18.1659
rfingers 7.12502
rthumb -5.6567 -48.0704
lclavicle -8.44835e-015 -6.36111e-014
lhumerus -40.5893 -14.2346 77.5992
lradius 25.6593
lwrist -10.7847
lhand -25.0062 36.0425
lfingers 7.12502
lthumb 1.50555 66.0169
rfemur -13.3457 1.06426 12.186
rtibia 31.0062
rfoot -27.9307 -7.63935
rtoes -22.944
lfemur -6.65659 -27.2002 -23.1999
ltibia 1.23189
lfoot -2.89167 -6.39587
ltoes -69.9126
393
root -24.5042 15.8189 5.38483 -170.848 0.714292 -183.391
lowerback 9.68647 3.89076 1.046
upperback -9.18964 5.62526 -6.26948
thorax -14.9809 2.4161 -9.04377
lowerneck -7.76131 10.1037 14.5677
upperneck 29.622 10.1821 -1.79733
head 11.9897 5.26496 -1.90339
rclavicle -7.77248e-014 3.02153e-014
rhumerus -39.8349 6.77565 -81.089
rradius 37.0332
rwrist -22.61
rhand -31.5756 -18.0986
rfingers 7.12502
rthumb -4.83891 -48.0233
lclavicle -7.77248e-014 3.02153e-014
lhumerus -40.3214 -15.0048 79.5432
lradius 26.206
lwrist -9.04234
lhand -24.5503 36.69
lfingers 7.12502
lthumb 1.9459 66.6609
rfemur -12.5252 1.57092 13.7372
rtibia 30.643
rfoot -26.6439 -6.93457
rtoes -25.1023
lfemur -7.75671 -28.7089 -21.1878
ltibia 1.78588
lfoot -2.76457 -6.10658
ltoes -69.8009
394
root -24.342 15.8431 5.41915 -170.722 -1.66879 -182.46
lowerback 9.55267 4.82136 1.26472
upperback -9.07399 5.31933 -5.93924
thorax -14.7883 1.622 -8.51018
lowerneck -8.10173 9.71057 14.4265
upperneck 29.9119 9.60704 -1.833
head 12.1093 4.99126 -1.96878
rclavicle -1.74931e-014 -3.02153e-014
rhumerus -40.5253 8.46773 -82.8427
rradius 35.7728
rwrist -20.8715
rhand -30.3698 -17.9723
rfingers 7.12502
rthumb -3.67454 -47.9204
lclavicle -1.74931e-014 -3.02153e-014
lhumerus -40.3571 -16.4277 81.9182
lradius 27.0609
lwrist -6.89784
lhand -23.1297 36.1762
lfingers 7.12502
lthumb 3.31787 66.1301
rfemur -11.5928 2.12096 15.3985
rtibia 29.9394
rfoot -25.3691 -6.2006
rtoes -27.5701
lfemur -8.98943 -30.0941 -19.0581
ltibia 2.35013
lfoot -2.63536 -5.6837
ltoes -69.8842
395
root -24.1759 15.8708 5.4516 -170.643 -4.06445 -181.531
lowerback 9.39284 4.67694 1.27931
upperback -9.05886 5.24594 -5.46062
thorax -14.7183 1.65226 -7.93801
lowerneck -8.42548 9.30972 14.3709
upperneck 30.1187 9.07151 -2.04165
head 12.2105 4.72885 -2.10838
rclavicle 4.77083e-015 -4.6118e-014
rhumerus -41.169 10.2237 -84.6836
rradius 34.5055
rwrist -18.6893
rhand -28.7727 -17.6207
rfingers 7.12502
rthumb -2.1322 -47.5897
lclavicle 4.77083e-015 -4.6118e-014
lhumerus -40.6741 -18.3605 84.5966
lradius 28.1818
lwrist -4.6945
lhand -20.8363 34.6642
lfingers 7.12502
lthumb 5.53244 64.5719
rfemur -10.5349 2.73672 17.1239
rtibia 28.8683
rfoot -24.175 -5.34917
rtoes -30.024
lfemur -10.3856 -31.214 -16.8577
ltibia 2.96663
lfoot -2.44958 -5.41737
ltoes -70.1397
